# xmcd
#
# Track frame offsets:
# 150
# 20026
# 34074
# 57762
# 74773
# 91624
# 103384
# 122668
# 137231
# 152747
# 175787
# 196704
# 215578
# 228220
# 253463
# 270921
# 285011
# 300168
# 321285
# 329993
#
# Disc length: 4528 seconds
#
#
# Revision: 0
# Processed by: cddbd v1.5PL3 Copyright (c) Steve Scherf et al.
# Submitted via: FreeRIP 2.53 
#
DISCID=1f11ae14
DTITLE=Rich Minus - Texan Gentleman
DYEAR=2002
DGENRE=Country
TTITLE0=The Benefit
TTITLE1=Someone Changed The World
TTITLE2=Rockin' The Republicans
TTITLE3=Last Night I Went Out
TTITLE4=Santa Ana's Foot Soldier
TTITLE5=Laredo Rose
TTITLE6=Borderline Blues
TTITLE7=Gray Day
TTITLE8=Feliz Cumpleaños, Mi Corazón
TTITLE9=The Legend
TTITLE10=Still A Stranger
TTITLE11=Blue Stockings
TTITLE12=Talking Supermarket Blues
TTITLE13=Cans
TTITLE14=Just Another Pretty Face
TTITLE15=Texas Bill
TTITLE16=Texas 1995
TTITLE17=It's So Hard
TTITLE18=What Would The Lord Do Were He Here
TTITLE19=Well All Right
EXTD=
EXTT0=
EXTT1=
EXTT2=
EXTT3=
EXTT4=
EXTT5=
EXTT6=
EXTT7=
EXTT8=
EXTT9=
EXTT10=
EXTT11=
EXTT12=
EXTT13=
EXTT14=
EXTT15=
EXTT16=
EXTT17=
EXTT18=
EXTT19=
PLAYORDER=
